<svg version="1" xmlns="http://www.w3.org/2000/svg" width="682.667" height="682.667" viewBox="0 0 512.000000 512.000000"><path d="M0 256v256h512V0H0v256zm178-137c0 4.8-.4 7.2-1.2 7.5-.7.2-7.5 1.8-15 3.5l-13.8 3.2v117.6c0 125.6.2 120.4-4.9 132.9-4.4 11.2-12.9 22.5-22.4 29.9-12.7 10-26.8 14.9-45.4 16.1l-10.3.6v-18l7.1-1.2c17.2-2.8 30.7-15.7 35.4-33.6 1.3-5.2 1.5-21.3 1.5-125.2V133l-2.2-.5c-1.3-.3-7.9-1.8-14.8-3.4l-12.5-2.8-.3-7.1-.3-7.2H178v7zm115 1.4v7.4l-4.7 1c-2.7.6-8.8 1.8-13.6 2.8-8.1 1.6-8.8 1.9-8.3 3.8 1.8 6.9 55.2 156.4 55.7 155.8.3-.4 12.4-35.7 26.7-78.4l26.1-77.7-3.7-1c-2-.6-7.7-2.1-12.7-3.4l-9-2.4-.3-7.6-.3-7.7H429v14.9l-3.7 1c-2.1.6-9 2.2-15.3 3.6-6.3 1.5-11.5 2.7-11.6 2.8 0 .1-16.4 48-36.5 106.5L325.5 348l-13.5-.2-13.5-.3L260 241.8c-21.2-58.1-38.8-105.9-39.1-106.2-.5-.5-13.7-3.9-27.6-7.1-2.1-.5-2.3-1.1-2.3-8V113h102v7.4zM421 389v5H173v-10h248v5z"/></svg>